<svg width="163" height="43" viewBox="0 0 163 43" fill="none" xmlns="http://www.w3.org/2000/svg">
<g clip-path="url(#clip0_5048_77192)">
<path d="M1.44064 34.4749C0.805476 34.4749 0.0420771 34.2639 0 33.2492C0 32.5724 0.33862 32.1076 1.31341 31.8537C3.2199 31.3038 3.51644 30.543 3.47437 28.8935V10.6448C3.51644 8.99533 3.2199 8.23455 1.31341 7.68471C0.33862 7.47377 0 7.00791 0 6.33211C0 5.35939 0.805476 5.10546 1.44064 5.10546H7.33043L10.0003 5.06348C10.8479 5.06348 11.8647 5.27441 11.9068 6.33211C11.9068 7.00891 11.483 7.51576 10.2117 7.7277C7.75421 8.36251 7.33043 9.16528 7.37251 10.8568V27.372C7.37251 30.8809 8.6749 31.6427 13.632 31.6427C15.0836 31.6427 16.6265 31.5078 17.8898 30.728C19.0609 30.0052 19.7081 28.8405 20.4915 27.7538C20.6789 27.4949 20.9033 27.19 21.0987 26.9271C21.3872 26.5392 21.8621 26.3393 22.3419 26.4022C23.0042 26.4892 23.4981 27.0531 23.4981 27.7189V27.7508C23.4981 28.4406 23.0573 31.2218 22.5102 32.9963C22.1716 34.053 21.6206 34.4339 20.2221 34.4339H3.51644L1.43964 34.4759L1.44064 34.4749ZM22.1045 41.7058C22.1045 41.4948 22.2738 41.2409 22.7407 40.776C24.2054 39.3035 25.628 37.7749 27.1487 36.3663C27.5675 35.9784 27.9692 35.5486 28.1786 35.0187C28.4111 34.4289 28.2748 33.966 28.0434 33.4152C27.7699 32.7654 27.3902 32.1496 27.0636 31.5217C26.715 30.8509 26.3763 30.1761 26.0457 29.4963C25.3825 28.1327 24.7534 26.7511 24.1533 25.3585C22.9681 22.6054 21.8991 19.8032 20.9173 16.971C20.4084 15.5334 19.9005 15.0256 19.0108 14.5607C18.2054 14.1378 17.8667 13.8419 17.8667 13.2921C17.8667 12.5733 18.2905 12.1504 19.3495 12.1504H26.5527C27.5274 12.1504 27.9081 12.4463 27.9081 13.1651C27.9081 13.7149 27.5695 14.0529 26.5947 14.3918C24.7724 15.0256 24.6882 15.7024 25.0269 16.844C26.3823 21.3257 28.1205 25.5545 30.2384 29.3174C30.577 29.9092 30.9587 29.7823 31.2132 29.2754C33.2048 25.4695 34.7727 21.2837 36.001 16.971C36.3817 15.7024 36.3396 15.1105 34.9841 14.6457C33.5855 14.1808 33.2048 13.7999 33.2048 13.1661C33.2048 12.5743 33.6286 12.1514 34.4331 12.1514H40.9591C41.6794 12.1514 42.1873 12.5323 42.1873 13.1661C42.1873 13.631 41.8487 14.0119 41.0853 14.4347C40.1105 14.9846 39.6446 15.6184 39.2629 16.803C37.5678 22.0465 35.6613 27.7119 32.738 33.2083C30.7884 36.8442 29.475 39.5504 28.3309 41.2839C27.7799 42.0877 27.3141 42.2986 26.5937 42.2986H22.7377C22.1446 42.2986 22.1015 42.0027 22.1015 41.7068L22.1045 41.7058ZM41.8928 31.6427C40.7066 30.3741 40.8759 29.1055 41.8507 28.1337C42.3165 27.7109 42.7824 27.288 43.2493 27.288C43.7161 27.288 43.9275 27.6259 44.3933 28.2607C46.3429 30.8819 48.8004 32.3625 51.6396 32.3625C54.2244 32.3625 55.9195 31.0099 55.9195 29.1065C55.9195 27.203 54.6061 25.7664 50.0297 25.0476C43.7161 24.0329 41.5972 21.9186 41.5972 18.4096C41.5972 14.9006 45.1988 11.5176 50.1138 11.5176C53.4189 11.5176 56.766 12.8702 58.3339 14.9006C59.2235 16.0003 58.927 17.057 58.0794 17.9027C57.5705 18.4106 57.2319 18.6635 56.9353 18.6635C56.6388 18.6635 56.3002 18.4526 55.8764 17.9447C54.012 15.4924 52.1055 14.2658 49.3935 14.2658C47.0212 14.2658 45.1567 15.7454 45.1567 17.6488C45.1567 19.5522 46.5553 20.524 51.2158 21.3277C57.0636 22.3004 59.479 24.5418 59.479 28.3887C59.479 32.2355 55.9615 35.0697 50.9624 35.0697C47.5301 35.0697 43.674 33.5052 41.8948 31.6447L41.8928 31.6427ZM61.4686 31.6427C60.2825 30.3741 60.4518 29.1055 61.4266 28.1337C61.8924 27.7109 62.3583 27.288 62.8251 27.288C63.292 27.288 63.5034 27.6259 63.9692 28.2607C65.9188 30.8819 68.3763 32.3625 71.2155 32.3625C73.8002 32.3625 75.4953 31.0099 75.4953 29.1065C75.4953 27.203 74.1819 25.7664 69.6055 25.0476C63.292 24.0329 61.1731 21.9186 61.1731 18.4096C61.1731 14.9006 64.7747 11.5176 69.6897 11.5176C72.9948 11.5176 76.3419 12.8702 77.9098 14.9006C78.7994 16.0003 78.5028 17.057 77.6553 17.9027C77.1464 18.4106 76.8077 18.6635 76.5112 18.6635C76.2147 18.6635 75.876 18.4526 75.4523 17.9447C73.5878 15.4924 71.6813 14.2658 68.9694 14.2658C66.597 14.2658 64.7326 15.7454 64.7326 17.6488C64.7326 19.5522 66.1312 20.524 70.7917 21.3277C76.6394 22.3004 79.0549 24.5418 79.0549 28.3887C79.0549 32.2355 75.5374 35.0697 70.5383 35.0697C67.106 35.0697 63.2499 33.5052 61.4706 31.6447L61.4686 31.6427ZM79.6039 33.3342C79.6039 32.7424 79.9425 32.3195 80.8752 32.0236C82.1045 31.6007 82.401 30.8819 82.3579 29.3174V17.2669C82.4 15.7024 82.1034 14.9836 80.7049 14.5187C79.7722 14.2228 79.4756 13.8419 79.4756 13.2081C79.5177 12.3204 80.1959 12.1084 80.789 12.1084L82.4421 12.1504H84.3916C85.4937 12.1504 85.9174 12.5313 86.214 13.63C86.3412 14.1798 86.7229 14.2638 87.1457 13.7989C88.5442 12.2764 90.6621 11.5156 92.8241 11.5156C96.2564 11.5156 98.9684 13.587 99.8159 17.5198L102.359 29.0205C102.74 30.712 103.121 31.3458 104.392 31.8956C105.536 32.4035 105.875 32.7834 105.875 33.5871C105.875 34.137 105.451 34.4329 104.689 34.4329H100.706C98.5867 34.4329 98.5866 33.1643 98.1208 30.1621L96.595 19.8871C96.044 16.2512 94.3489 14.6867 91.4255 14.6867C88.5022 14.6867 86.1709 17.054 86.1709 19.8452V29.1055C86.1288 30.755 86.4674 31.5157 87.9081 31.8966C89.0101 32.2345 89.3908 32.6574 89.3908 33.2922C89.3908 34.223 88.5432 34.4339 87.7809 34.4339H81.0014C80.3232 34.4339 79.6029 34.223 79.6029 33.3342H79.6039ZM105.112 27.374C105.112 22.9952 109.137 19.5093 114.094 19.5093C116.044 19.5093 117.908 20.0191 118.67 20.0191C119.094 20.0191 119.221 19.8492 119.221 19.4663C119.221 16.7451 117.061 14.5777 114.263 14.5777C112.144 14.5777 109.814 15.5984 107.442 17.4259C106.806 17.8937 106.256 17.8507 105.916 17.2559C104.687 15.1305 104.857 14.0249 106.552 13.2171C108.544 12.2814 111.976 11.5166 114.561 11.5166C120.069 11.5166 122.104 14.4497 123.374 20.274L125.154 28.4796C125.536 30.2651 126.298 31.5827 127.57 32.3905C128.036 32.6884 128.248 33.0283 128.248 33.3682C128.248 33.963 127.612 34.6008 126.342 34.6438C124.901 34.6438 123.63 33.921 122.485 32.4335C122.062 31.8806 121.765 31.8387 121.087 32.3485C119.137 33.921 115.875 34.8568 113.502 34.8568C108.587 34.8568 105.113 31.7537 105.113 27.374H105.112ZM114.179 31.7957C119.052 31.7957 121.382 29.6273 120.959 27.6289L120.45 25.2056C120.026 23.1222 119.56 22.5274 114.942 22.5274C111.509 22.5274 109.094 24.4408 109.094 27.161C109.094 29.8812 111.297 31.7947 114.178 31.7947L114.179 31.7957Z" fill="#B9FFE8"/>
<path d="M160.975 1.03477C160.209 0.255998 159.415 -0.068907 158.473 0.0120693C158.433 0.0150684 158.394 0.0210667 158.356 0.0300641C158.194 0.0650538 158.046 0.142031 157.926 0.251999L157.869 0.303984C157.662 0.492929 157.406 0.72786 157.177 0.985785C156.232 2.04847 155.754 3.3291 155.309 4.65771C154.991 5.60743 154.682 6.62314 154.698 7.67783C154.705 8.1317 154.65 8.55057 154.535 8.92146C154.156 10.1401 154.084 11.4167 154.015 12.6504L153.982 13.2242C153.877 14.9217 153.92 16.5432 154.11 18.0448C154.554 21.5488 155.432 24.9038 156.722 28.0149C156.871 28.3748 156.849 28.6277 156.639 28.9846C155.823 30.3692 154.734 31.4199 153.401 32.1067C153.134 32.2446 152.866 32.3426 152.604 32.3986C151.987 32.5316 151.389 32.4466 150.776 32.1367C149.905 31.6978 149.199 31.151 148.676 30.5122C148.272 30.0193 147.77 29.4055 147.518 28.8007C147.38 28.4698 147.395 28.0939 147.559 27.77L147.792 27.3101C148.106 26.6963 148.375 26.1664 148.609 25.6086L148.765 25.2347C149.221 24.144 149.694 23.0163 150.017 21.8627C150.225 21.1259 150.317 20.3521 150.406 19.6043C150.448 19.2554 150.489 18.9065 150.542 18.5606C150.611 18.1178 150.68 17.6749 150.75 17.232C150.876 16.4263 151.003 15.6215 151.121 14.8147C151.128 14.7638 151.186 14.5498 151.242 14.3429C151.374 13.854 151.554 13.1852 151.583 12.8553C151.698 11.5597 151.761 8.75951 151.663 8.14669C151.572 7.57286 151.343 6.26924 151.229 5.85536C151.111 5.43249 150.513 4.66671 149.552 4.28982C149.25 4.17185 148.919 4.14586 148.593 4.21684C148.432 4.25183 148.276 4.30881 148.12 4.39279C147.77 4.58073 147.494 4.88664 147.343 5.25454L147.178 5.64842C146.878 6.36421 146.567 7.105 146.363 7.88777C146.078 8.97345 145.839 10.0881 145.607 11.1668C145.393 12.1635 145.172 13.1952 144.915 14.1969C144.477 15.9144 144.31 17.7389 144.404 19.7723C144.425 20.2162 144.498 20.659 144.57 21.0889C144.653 21.5898 144.739 22.1086 144.735 22.6095C144.725 23.8601 144.916 25.0597 145.13 26.2824C145.167 26.4953 145.34 27.0512 145.508 27.589L145.601 27.8879C145.706 28.2228 145.686 28.5857 145.545 28.9096L145.42 29.2025C145.135 29.8703 144.84 30.5611 144.416 31.143C143.998 31.7168 143.275 32.2117 142.644 32.3476C141.564 32.5726 140.602 32.2496 139.862 31.4129C139.676 31.202 139.612 30.919 139.693 30.6541C139.719 30.5691 139.747 30.4852 139.776 30.4012C139.82 30.2712 139.864 30.1413 139.898 30.0093C139.988 29.6584 140.089 29.3085 140.19 28.9586C140.426 28.1448 140.67 27.3031 140.767 26.4513C140.804 26.1244 140.887 25.8135 140.975 25.4846C141.102 25.0118 141.233 24.5229 141.219 23.9731C141.201 23.2533 141.388 22.5355 141.586 21.7757C141.677 21.4268 141.771 21.0669 141.842 20.71C141.862 20.613 141.884 20.5151 141.906 20.4171C141.989 20.0442 142.075 19.6593 142.036 19.2774C141.968 18.6116 142.031 17.9368 142.091 17.285C142.116 17.0171 142.141 16.7482 142.157 16.4793C142.331 13.6681 142.236 11.5187 141.85 9.51329C141.673 8.60056 141.455 7.72781 140.73 7.085C140.539 6.91505 140.268 6.84707 140.005 6.90405C139.986 6.90805 139.967 6.91305 139.948 6.91805C139.517 7.04201 139.103 7.19497 138.775 7.70282C138.68 7.84978 138.587 7.98974 138.495 8.1247C138.059 8.77751 137.681 9.34234 137.419 10.2761C137.344 10.542 137.268 10.8069 137.191 11.0728C136.873 12.1695 136.545 13.3042 136.388 14.4498C136.288 15.1726 136.25 15.9134 136.214 16.6292C136.182 17.247 136.15 17.8858 136.078 18.5077C135.999 19.1905 135.984 19.8013 136.031 20.3741C136.085 21.0279 136.158 21.6897 136.229 22.3305C136.348 23.4122 136.472 24.5299 136.507 25.6286C136.524 26.1874 136.619 26.7273 136.711 27.2481C136.752 27.482 136.793 27.715 136.827 27.9489C136.947 28.7687 137.273 29.5564 137.59 30.3182C138.092 31.5279 137.999 31.9087 137.012 32.7145C136.714 32.9574 136.409 33.1134 136.105 33.1794C135.445 33.3213 134.789 33.0494 134.154 32.3686C132.954 31.081 132.487 29.3915 132.032 27.745C131.676 26.4583 131.46 25.6826 131.554 24.342C131.563 24.209 131.552 23.7861 131.532 23.0513C131.498 21.8347 131.447 19.9962 131.519 19.2814C131.595 18.5237 131.631 17.7519 131.667 17.0051C131.69 16.5122 131.713 16.0194 131.748 15.5275C131.79 14.9217 131.932 14.2739 132.071 13.6481C132.177 13.1642 132.287 12.6644 132.352 12.1795C132.372 12.0286 132.332 11.8806 132.239 11.7616C132.146 11.6437 132.012 11.5697 131.863 11.5537L131.689 11.5347C131.629 11.5277 131.57 11.5307 131.511 11.5437C131.311 11.5867 131.152 11.7366 131.098 11.9336C130.932 12.5344 130.765 13.5651 130.719 13.867L130.649 14.3149C130.497 15.2786 130.34 16.2753 130.286 17.266C130.237 18.1708 130.236 19.0905 130.234 19.9802C130.233 20.5921 130.232 21.2039 130.216 21.8157C130.163 23.8571 130.214 26.2664 130.985 28.6597C131.447 30.0963 132.084 31.5349 132.93 33.0574C133.625 34.308 135.289 34.6819 136.574 34.405C136.98 34.317 137.346 34.1651 137.632 33.9651C138.063 33.6642 138.318 33.2723 138.565 32.8935L138.649 32.7675C138.702 32.6865 138.784 32.6315 138.879 32.6105C138.975 32.5895 139.073 32.6065 139.157 32.6585L139.236 32.7075C139.632 32.9534 140.017 33.1914 140.408 33.4213C141.359 33.9801 142.428 33.9142 143.17 33.7582C144.006 33.5783 144.809 32.9644 145.371 32.0747C145.719 31.5259 146.004 30.948 146.306 30.3372L146.488 29.9703C146.498 29.9503 146.513 29.9383 146.533 29.9343C146.543 29.9323 146.594 29.9243 146.614 29.9833C147.078 31.3099 147.821 32.2367 148.825 32.7365L149.161 32.9055C150.362 33.5123 151.605 34.1401 152.914 33.8572C153.201 33.7952 153.486 33.6892 153.76 33.5433C155.376 32.6835 156.586 31.6508 157.46 30.3852C157.492 30.3382 157.528 30.2942 157.565 30.2512C157.593 30.2192 157.625 30.2072 157.648 30.2022C157.706 30.1902 157.766 30.2092 157.806 30.2522C157.846 30.2962 157.995 30.4762 158.217 30.7431C159.042 31.7368 160.758 33.8052 161.733 34.7719C161.986 35.0238 162.239 35.1238 162.484 35.0708C162.564 35.0538 162.644 35.0198 162.719 34.9699C162.92 34.8359 163.028 34.59 162.994 34.343C162.935 33.9162 162.644 33.6332 162.396 33.4343C160.838 32.1837 158.875 29.4025 158.704 28.6187C158.553 27.9189 159.099 26.2774 159.278 25.7376C159.313 25.6346 159.337 25.5636 159.345 25.5336C159.395 25.3467 159.459 25.1627 159.524 24.9788C159.61 24.7338 159.699 24.4799 159.753 24.219C160.064 22.7374 160.355 21.5418 160.671 20.4551C161.087 19.0245 161.379 17.5379 161.663 16.1004L161.778 15.5225C161.897 14.9297 162.033 14.2569 162.052 13.6561C162.067 13.1322 162.145 12.6374 162.227 12.1135L162.285 11.7396C162.592 9.68824 162.611 7.58486 162.343 5.11958C162.186 3.663 161.69 1.76356 160.974 1.03377L160.975 1.03477ZM157.708 26.2934C157.674 26.3894 157.637 26.4873 157.601 26.5883C157.557 26.4473 157.514 26.3104 157.472 26.1754C157.272 25.5386 157.099 24.9888 156.903 24.4349C156.477 23.2363 156.145 21.9287 155.886 20.4351C155.675 19.2125 155.522 18.0958 155.418 17.0221L155.399 16.8272C155.316 15.9764 155.231 15.0957 155.326 14.2279C155.436 13.2322 155.53 12.2335 155.623 11.2358C155.702 10.391 155.781 9.54528 155.87 8.70053C155.918 8.24766 155.991 7.7878 156.063 7.34193C156.116 7.00702 156.169 6.67212 156.213 6.33522C156.362 5.18956 156.86 4.13586 157.342 3.11616L157.561 2.6493C157.708 2.33339 157.938 2.05547 158.204 1.73357L158.302 1.6156C158.378 1.52363 158.483 1.45965 158.599 1.43465C158.686 1.41566 158.778 1.41966 158.863 1.44465L159.325 1.58361C159.729 1.70557 160.053 2.01348 160.191 2.40737C160.313 2.75827 160.463 3.16415 160.679 3.52604C160.838 3.79296 160.881 4.07288 160.927 4.3688C160.949 4.50176 160.97 4.63472 161 4.76768C161.061 5.0306 161.09 5.29852 161.121 5.58144C161.147 5.81937 161.174 6.0653 161.221 6.30723C161.424 7.33993 161.301 8.39162 161.183 9.40932C161.151 9.68024 161.12 9.95216 161.094 10.2241C161.055 10.637 161.003 11.0478 160.95 11.4597C160.897 11.8676 160.846 12.2745 160.806 12.6834C160.804 12.7064 160.792 12.7813 160.775 12.8843C160.722 13.2162 160.633 13.772 160.628 14.041C160.588 15.9644 160.1 17.8469 159.628 19.6673L159.54 20.0082C159.105 21.6917 158.637 23.3293 158.195 24.8478C158.06 25.3117 157.897 25.7665 157.708 26.2934ZM146.391 13.7271C146.416 13.4192 146.44 13.1282 146.52 12.8363C146.691 12.2165 147.301 9.91118 147.404 9.32835C147.547 8.50859 147.773 7.68383 148.116 6.7321C148.209 6.47318 148.333 6.24425 148.496 6.03131C148.618 5.87136 148.786 5.76439 148.983 5.7224C149.327 5.64842 149.67 5.78738 149.855 6.0763C150.009 6.31623 150.118 6.60214 150.188 6.95304C150.661 9.31335 150.387 11.6887 150.095 13.7291C150.028 14.1919 149.911 14.6638 149.797 15.1197C149.626 15.8095 149.448 16.5232 149.435 17.241C149.418 18.2008 148.883 21.3068 148.739 21.9077C148.617 22.4165 148.387 22.9194 148.167 23.4052C148.104 23.5432 148.042 23.6812 147.981 23.8191C147.75 24.345 147.497 24.8728 147.251 25.3827L147.085 25.7286C147.014 25.8785 146.939 26.0265 146.863 26.1734C146.836 26.2264 146.794 26.2454 146.764 26.2514C146.692 26.2664 146.604 26.2324 146.577 26.1234C146.481 25.7306 146.381 25.3237 146.338 24.9248C146.223 23.8551 146.123 22.7634 146.028 21.7087C145.96 20.9609 145.893 20.2132 145.819 19.4654C145.642 17.6789 145.954 15.9804 146.282 14.5538C146.346 14.2749 146.369 13.997 146.39 13.7271H146.391ZM137.673 15.2376C137.717 14.3789 137.758 13.5671 138.066 12.7853C138.244 12.3325 138.328 11.8556 138.408 11.3937C138.515 10.7789 138.618 10.1981 138.926 9.67325C139.088 9.39633 139.7 8.53258 139.839 8.33664C139.866 8.32464 139.893 8.31664 139.921 8.31064C140.136 8.26366 140.359 8.38462 140.438 8.58956C140.55 8.88248 140.663 9.19439 140.706 9.5003C140.757 9.85519 140.816 10.2131 140.874 10.571C141.06 11.7057 141.252 12.8793 141.161 13.998C141.114 14.5798 141.102 15.1706 141.091 15.7425C141.072 16.6982 141.053 17.6869 140.864 18.6396C140.836 18.7786 140.574 20.644 140.569 20.9979C140.558 21.6697 140.458 22.3745 140.252 23.2153C140.177 23.5182 140.131 23.8271 140.087 24.126C140.028 24.5259 139.967 24.9388 139.837 25.3277C139.74 25.6176 139.662 25.9145 139.597 26.1664C139.328 27.2271 139.095 28.0729 138.802 29.1436L138.78 29.2235C138.764 29.2835 138.718 29.3015 138.692 29.3075C138.682 29.3095 138.594 29.3265 138.558 29.2415C138.14 28.2358 137.991 27.2821 137.876 26.3904C137.716 25.1557 137.618 23.8901 137.524 22.6654C137.487 22.1886 137.45 21.7107 137.409 21.2339C137.26 19.4724 137.424 17.7379 137.584 16.4243C137.632 16.0294 137.652 15.6265 137.672 15.2376H137.673Z" fill="#B9FFE8"/>
</g>
<defs>
<clipPath id="clip0_5048_77192">
<rect width="163" height="42.2986" fill="white"/>
</clipPath>
</defs>
</svg>
